<?xml version="1.0" standalone="no"?>
<!DOCTYPE svg PUBLIC "-//W3C//DTD SVG 20010904//EN"
 "http://www.w3.org/TR/2001/REC-SVG-20010904/DTD/svg10.dtd">
<svg version="1.0" xmlns="http://www.w3.org/2000/svg"
 width="1200.000000pt" height="1200.000000pt" viewBox="0 0 1200.000000 1200.000000"
 preserveAspectRatio="xMidYMid meet">
<metadata>
Created by potrace 1.11, written by Peter Selinger 2001-2013
</metadata>
<g transform="translate(0.000000,1200.000000) scale(0.100000,-0.100000)"
fill="#000000" stroke="none">
<path d="M0 6000 l0 -6000 6000 0 6000 0 0 6000 0 6000 -855 0 -854 0 -4
-1832 -3 -1833 -22 -82 c-83 -312 -309 -540 -617 -624 -65 -18 -107 -22 -220
-22 -122 0 -151 3 -228 27 -298 90 -500 291 -594 593 l-28 88 -3 1843 -2 1842
-854 0 -853 0 -7 -702 c-3 -387 -6 -1214 -6 -1838 1 -1111 0 -1137 -20 -1215
-74 -291 -299 -521 -595 -611 -80 -24 -106 -27 -235 -27 -129 0 -155 3 -235
27 -295 89 -515 314 -598 611 l-22 80 -3 1838 -2 1837 -855 0 -855 0 -2 -1842
-3 -1843 -28 -88 c-94 -302 -296 -503 -594 -593 -77 -24 -106 -27 -228 -27
-113 0 -155 4 -220 22 -308 84 -534 312 -617 624 l-22 82 -3 1833 -4 1832
-854 0 -855 0 0 -6000z m3074 1 c655 -135 1146 -624 1287 -1281 20 -90 23
-135 23 -315 0 -235 -13 -324 -79 -521 -149 -447 -520 -833 -960 -997 -221
-82 -403 -112 -645 -104 -301 10 -567 92 -802 246 l-77 50 -3 -637 -3 -637
-29 -62 c-57 -125 -177 -203 -310 -203 -147 0 -261 78 -318 218 l-23 57 0
1961 0 1960 38 76 c41 83 89 132 166 170 38 19 63 23 141 23 87 0 100 -3 149
-30 67 -37 113 -97 142 -187 12 -38 23 -68 25 -68 2 0 41 24 86 54 193 125
435 215 663 245 116 16 415 5 529 -18z m3855 0 c221 -48 447 -145 621 -269
121 -85 296 -260 382 -382 126 -177 229 -420 275 -645 28 -139 25 -473 -5
-614 -82 -376 -272 -699 -549 -931 -217 -181 -465 -299 -748 -357 -139 -28
-473 -25 -615 5 -661 142 -1138 621 -1282 1285 -19 86 -22 134 -22 312 -1 236
10 310 71 500 194 600 710 1029 1343 1115 113 15 422 4 529 -19z m3256 4 c226
-50 397 -142 524 -281 126 -137 172 -294 121 -412 -58 -134 -222 -201 -390
-158 -36 9 -135 50 -220 90 -179 86 -236 104 -341 113 -111 8 -170 -8 -229
-66 -78 -75 -90 -177 -32 -270 49 -79 254 -215 567 -377 384 -197 559 -348
666 -577 54 -116 72 -206 73 -372 1 -165 -14 -238 -74 -371 -55 -123 -182
-271 -300 -351 -368 -250 -1003 -258 -1412 -18 -303 177 -411 484 -233 661 64
65 130 89 235 88 97 -1 157 -24 296 -115 132 -86 202 -122 278 -144 76 -22
229 -22 299 0 186 59 248 226 142 381 -71 103 -180 177 -520 352 -269 138
-397 219 -502 317 -187 172 -270 353 -280 610 -4 110 -2 144 16 217 57 239
206 432 436 562 89 51 259 110 376 131 108 18 403 13 504 -10z"/>
<path d="M2553 5315 c-283 -65 -516 -254 -638 -519 -59 -126 -79 -229 -79
-396 0 -102 5 -165 17 -214 70 -280 243 -499 492 -621 145 -72 222 -88 410
-89 184 0 261 16 403 84 106 51 161 88 246 169 126 122 217 278 255 442 103
440 -92 872 -482 1064 -150 74 -207 87 -397 91 -117 2 -183 -1 -227 -11z"/>
<path d="M6478 5319 c-146 -21 -297 -81 -411 -163 -179 -127 -309 -322 -364
-542 -25 -105 -23 -314 5 -428 27 -106 85 -235 146 -319 51 -72 159 -179 229
-226 76 -52 206 -109 298 -131 441 -105 870 98 1059 503 205 438 37 967 -382
1201 -166 92 -390 133 -580 105z"/>
</g>
</svg>
